# xmcd CD database file
#
# Track frame offsets:
#	150
#	8332
#	19216
#	32329
#	43483
#	55159
#	59953
#	75000
#	85631
#	94883
#	106151
#	117868
#	129438
#	140012
#	153362
#	165912
#
# Disc length: 2425 seconds
#
# Revision: 0
# Processed by: cddbd v1.5.2PL0 Copyright (c) Steve Scherf et al.
# Submitted via: cdripper 1,0,39,0213
#
DISCID=bb097710
DTITLE=Varouis - Country Legends - Railroad Bill
DYEAR=1900
DGENRE=Country
TTITLE0=01 Jim Reeves - Roly Poly
TTITLE1=02 Willie Nelson - Go Away
TTITLE2=03 Gene Autry - Silver Haired Daddy Of Mine
TTITLE3=04 Conway Twitty (aka Harold Jenkins) - Big Town
TTITLE4=05 Charley Pride - Shutters And Boards
TTITLE5=06 Anne Murray - Railroad Bill
TTITLE6=07 Billie Jo Spears - I'll Never Be Free
TTITLE7=08 Jimmie C. Newman - Corine Corina
TTITLE8=09 Webb Pierce - Honky Tonk Song
TTITLE9=10 Patsy Cline - A Stranger In My Arms
TTITLE10=11 Freddy Fender - She's About A Mover
TTITLE11=12 Frankie Laine - Mule Train
TTITLE12=13 Loretta Lynn - Somebody Somewhere
TTITLE13=14 Jerry Lee Lewis - Goodnight Irene
TTITLE14=15 Hank Williams - Lovesick Blues
TTITLE15=16 Tina Turner - Lay It Down
EXTD=
EXTT0=
EXTT1=
EXTT2=
EXTT3=
EXTT4=
EXTT5=
EXTT6=
EXTT7=
EXTT8=
EXTT9=
EXTT10=
EXTT11=
EXTT12=
EXTT13=
EXTT14=
EXTT15=
PLAYORDER=
